<svg width="25" height="18" viewBox="0 0 25 18" fill="none" xmlns="http://www.w3.org/2000/svg">
<path d="M22.7 7.79998C21.7063 7.79998 20.9 8.60623 20.9 9.59998V12.6H4.1V9.59998C4.1 8.60623 3.29413 7.79998 2.3 7.79998C1.30588 7.79998 0.5 8.60623 0.5 9.59998V16.8C0.5 17.13 0.76865 17.4 1.1 17.4H3.5C3.83135 17.4 4.06625 17.1313 4.06625 16.8L4.1 16.2H20.9V16.8C20.9 17.1313 21.1687 17.4 21.5 17.4H23.9C24.2314 17.4 24.5 17.1313 24.5 16.8V9.59998C24.5 8.60623 23.6938 7.79998 22.7 7.79998ZM5.3 9.59998V11.4H19.7V9.59998C19.7 8.15135 20.7324 6.93935 22.1 6.66073V5.39998C22.1 2.7491 19.9509 0.599976 17.3 0.599976H7.66625C5.01538 0.599976 2.86625 2.7491 2.86625 5.39998L2.9 6.65998C4.26875 6.94123 5.3 8.15248 5.3 9.59998Z" fill="#030303"/>
</svg>
