<svg width="19" height="20" viewBox="0 0 19 20" fill="none" xmlns="http://www.w3.org/2000/svg">
<path d="M9 0L3.5 9H14.5L9 0ZM14.5 11C13.9091 11 13.3239 11.1164 12.7779 11.3425C12.232 11.5687 11.7359 11.9002 11.318 12.318C10.9002 12.7359 10.5687 13.232 10.3425 13.7779C10.1164 14.3239 10 14.9091 10 15.5C10 16.0909 10.1164 16.6761 10.3425 17.2221C10.5687 17.768 10.9002 18.2641 11.318 18.682C11.7359 19.0998 12.232 19.4313 12.7779 19.6575C13.3239 19.8836 13.9091 20 14.5 20C15.0909 20 15.6761 19.8836 16.2221 19.6575C16.768 19.4313 17.2641 19.0998 17.682 18.682C18.0998 18.2641 18.4313 17.768 18.6575 17.2221C18.8836 16.6761 19 16.0909 19 15.5C19 14.9091 18.8836 14.3239 18.6575 13.7779C18.4313 13.232 18.0998 12.7359 17.682 12.318C17.2641 11.9002 16.768 11.5687 16.2221 11.3425C15.6761 11.1164 15.0909 11 14.5 11ZM0 11.5H8V19.5H0V11.5Z" fill="#030303"/>
</svg>
