<svg width="60" height="60" viewBox="0 0 60 60" fill="none" xmlns="http://www.w3.org/2000/svg">
<path d="M23.9414 0.585894C12.293 2.85933 2.90625 12.2226 0.609379 23.8359C-3.72656 45.75 16.043 62.0859 30.9375 59.7773C35.7656 59.0273 38.1328 53.3789 35.918 49.0312C33.2109 43.7109 37.0781 37.5 43.0547 37.5H52.3945C56.5898 37.5 59.9883 34.0312 60 29.8476C59.9414 11.3789 43.1367 -3.15239 23.9414 0.585894ZM11.25 37.5C9.17579 37.5 7.5 35.8242 7.5 33.75C7.5 31.6757 9.17579 30 11.25 30C13.3242 30 15 31.6757 15 33.75C15 35.8242 13.3242 37.5 11.25 37.5ZM15 22.5C12.9258 22.5 11.25 20.8242 11.25 18.75C11.25 16.6757 12.9258 15 15 15C17.0742 15 18.75 16.6757 18.75 18.75C18.75 20.8242 17.0742 22.5 15 22.5ZM30 15C27.9258 15 26.25 13.3242 26.25 11.25C26.25 9.17574 27.9258 7.49996 30 7.49996C32.0742 7.49996 33.75 9.17574 33.75 11.25C33.75 13.3242 32.0742 15 30 15ZM45 22.5C42.9258 22.5 41.25 20.8242 41.25 18.75C41.25 16.6757 42.9258 15 45 15C47.0742 15 48.75 16.6757 48.75 18.75C48.75 20.8242 47.0742 22.5 45 22.5Z" fill="#030303"/>
</svg>
